<?xml version="1.0" encoding="UTF-8"?>
<svg width="1.5em" height="1.5em" viewBox="0 0 200 200" version="1.1" xmlns="http://www.w3.org/2000/svg" xmlns:xlink="http://www.w3.org/1999/xlink">
    <g id="Artboard" stroke="none" stroke-width="1" fill="none" fill-rule="evenodd">
        <path d="M118.355504,21.6063947 L197.158436,158.194016 C203.007995,168.332947 199.530773,181.294179 189.391843,187.143739 C186.171226,189.001843 182.518465,189.979996 178.800278,189.979996 L21.1944147,189.979996 C9.48906268,189.979996 2.5099229e-15,180.490933 0,168.785581 C0,165.067393 0.978152706,161.414632 2.83625669,158.194016 L81.6391882,21.6063947 C87.488748,11.467464 100.44998,7.99024189 110.588911,13.8398017 C113.815268,15.7012178 116.494088,18.3800377 118.355504,21.6063947 Z M109.063564,64.7036043 L94.7202919,64.7036043 L94.7202919,105.119128 C94.7202919,109.35854 94.8969314,113.515457 95.2502157,117.590003 C95.6035,121.664548 96.1098666,126.056984 96.7693307,130.767442 L107.014525,130.767442 C107.626884,126.056984 108.121475,121.664548 108.498311,117.590003 C108.875148,113.515457 109.063564,109.35854 109.063564,105.119128 L109.063564,64.7036043 Z M91.823375,157.687572 C91.823375,159.10071 92.0706703,160.396066 92.5652683,161.57368 C93.0598664,162.751295 93.7546484,163.78758 94.6496354,164.682567 C95.5446223,165.577554 96.5809075,166.272336 97.7585219,166.766934 C98.9361363,167.261532 100.231493,167.508827 101.64463,167.508827 C103.010663,167.508827 104.294243,167.261532 105.49541,166.766934 C106.696576,166.272336 107.732862,165.577554 108.604296,164.682567 C109.475731,163.78758 110.170513,162.751295 110.688663,161.57368 C111.206814,160.396066 111.465885,159.10071 111.465885,157.687572 C111.465885,156.32154 111.206814,155.037959 110.688663,153.836792 C110.170513,152.635626 109.475731,151.587565 108.604296,150.692578 C107.732862,149.797591 106.696576,149.091033 105.49541,148.572882 C104.294243,148.054732 103.010663,147.795661 101.64463,147.795661 C100.231493,147.795661 98.9361363,148.054732 97.7585219,148.572882 C96.5809075,149.091033 95.5446223,149.797591 94.6496354,150.692578 C93.7546484,151.587565 93.0598664,152.635626 92.5652683,153.836792 C92.0706703,155.037959 91.823375,156.32154 91.823375,157.687572 Z" fill="currentColor"></path>
    </g>
</svg>
