<?xml version="1.0" encoding="UTF-8"?>
<svg width="1.5em" height="1.5em" viewBox="0 0 200 200" version="1.1" xmlns="http://www.w3.org/2000/svg" xmlns:xlink="http://www.w3.org/1999/xlink">
    <g stroke="none" stroke-width="1" fill="none" fill-rule="evenodd">
        <path d="M163.371268,155.539163 L166.20477,158.372665 L169.128618,155.448816 C169.323881,155.253554 169.640463,155.253554 169.835725,155.448816 L200.019333,185.632424 C200.214596,185.827687 200.214596,186.144269 200.019333,186.339531 L188.790325,197.568539 C188.595063,197.763802 188.278481,197.763802 188.083218,197.568539 L157.89961,167.384931 C157.704348,167.189669 157.704348,166.873087 157.89961,166.677824 L160.236712,164.340722 L157.304872,161.408882 C150.163108,167.024277 141.050689,170.390665 131.124331,170.390665 C108.203539,170.390665 89.6225659,152.441531 89.6225659,130.300153 C89.6225659,108.158774 108.203539,90.2096403 131.124331,90.2096403 C154.045122,90.2096403 172.626095,108.158774 172.626095,130.300153 C172.626095,139.865231 169.158438,148.647935 163.371268,155.539163 Z M0,29.8966622 C2.94770815,11.3071449 15.8298003,3 24.3494369,3 C32.8690734,3 79.3367153,3 87.487324,3 C95.6379327,3 141.252331,48.6046064 141.252331,55.9196414 C141.252331,60.7963313 141.252331,67.9791461 141.252331,77.4680858 C138.030626,76.3498814 132.802376,75.7086997 125.567582,75.5445407 C125.567582,67.5320017 125.567582,61.1390733 118.36834,61.1390733 C111.169098,61.1390733 99.8934847,61.1390733 91.5786266,61.1390733 C83.2637686,61.1390733 81.2959757,58.5777808 81.2959757,55.9196414 C81.2959757,53.2615019 81.2959757,38.4439199 81.2959757,32.0066892 C81.2959757,25.5694584 82.008434,18.5470249 74.7665297,18.5470249 C67.5246253,18.5470249 34.7355436,18.5470249 27.0947479,18.5470249 C19.4539522,18.5470249 15.8298003,25.1882524 15.8298003,32.0066892 C15.8298003,38.8251259 15.8298003,144.330596 15.8298003,154.101834 C15.8298003,163.873072 20.9129986,167.678951 28.5537943,167.678951 C33.6476581,167.678951 54.6559355,167.678951 91.5786266,167.678951 C98.075365,173.718491 107.005269,178.216722 118.36834,181.173645 C62.3955653,181.173645 31.0559309,181.173645 24.3494369,181.173645 C14.2896958,181.173645 0,172.962261 0,156.558037 C0,145.621888 0,103.40143 0,29.8966622 Z M131.124331,157.730503 C146.806977,157.730503 159.520275,145.449517 159.520275,130.300153 C159.520275,115.150788 146.806977,102.869802 131.124331,102.869802 C115.441684,102.869802 102.728386,115.150788 102.728386,130.300153 C102.728386,145.449517 115.441684,157.730503 131.124331,157.730503 Z" fill="currentColor" fill-rule="nonzero"></path>
    </g>
</svg>
